:SAMPLES-PER-SECOND 30
:FULLY-SPECIFIED
:DEGREES
25
root  10.5536 38.8102 2.95587 -101.681 -84.3035 106.727
RightUpLeg  -13.6368 -8.64931 -7.03767
RightLeg  25.2743 7.90552 3.4392
RightFoot  -17.5282 -0.14733 -0.528752
RightToes  4.01633e-009 0 -3.6325e-017
Spine  -8.79314 1.24525 0.0577844
Spine1  13.2714 0.647414 4.7247
HEad  1.4247 3.84631 -7.0619
LeftShoulder1  -0.644662 5.1692 -32.5577
LeftArm  -9.19721 16.2749 -48.8063
LeftForeArm  30.7068 -7.21853 -6.40308
LeftHand  -0.011549 4.51352 -1.73559
RightShoulder  -1.01117 -6.43739 27.9092
RightArm  -0.999656 -11.9773 44.6033
RightForeArm  12.426 6.09188 1.29059
RightHand  -0.232927 1.96404 -3.85433
LeftUpLeg  -20.7124 4.14447 -2.25345
LeftLeg  36.7177 2.80714 2.5931
LeftFoot  -4.39217 0.276212 -4.05681
LeftToes  -1.95724e-009 9.62483e-011 3.51777e-011
26
root  10.1753 38.828 3.03388 -91.1672 -83.5499 95.6102
RightUpLeg  -12.1922 -10.8456 -8.55578
RightLeg  25.4977 8.99553 4.03257
RightFoot  -17.886 -0.175354 -0.953068
RightToes  4.01633e-009 0 -3.6325e-017
Spine  -8.2883 1.06878 0.323903
Spine1  13.5766 0.810856 3.66282
HEad  2.16294 3.5303 -6.40469
LeftShoulder1  -0.580985 4.99183 -32.8906
LeftArm  -9.27103 17.6851 -49.4827
LeftForeArm  31.4991 -7.03963 -6.40638
LeftHand  0.0167407 4.00062 -3.60767
RightShoulder  -1.11677 -6.6734 28.7205
RightArm  0.367867 -12.1503 46.5179
RightForeArm  13.009 6.67341 1.98002
RightHand  -0.214097 2.14292 -3.48353
LeftUpLeg  -22.4852 4.1927 -3.61126
LeftLeg  39.316 2.16286 2.26005
LeftFoot  -4.60867 0.29265 -4.50417
LeftToes  -1.95724e-009 9.62483e-011 3.51777e-011
27
root  9.77239 38.8734 3.12406 -84.8288 -82.5589 89.0159
RightUpLeg  -10.9178 -12.6249 -10.1515
RightLeg  25.3699 10.0018 4.51878
RightFoot  -18.294 -0.17709 -0.879856
RightToes  4.01633e-009 0 -3.6325e-017
Spine  -7.9265 1.04172 0.395429
Spine1  13.4882 1.05551 2.67357
HEad  2.55889 3.75313 -6.49012
LeftShoulder1  -0.551326 4.90944 -33.0691
LeftArm  -10.1323 18.0297 -49.3383
LeftForeArm  28.0141 -5.06039 -5.69342
LeftHand  -0.0031583 4.74218 -4.86047
RightShoulder  -1.10422 -6.6383 28.706
RightArm  2.77578 -12.0728 48.0377
RightForeArm  14.0574 7.44457 3.05756
RightHand  -0.233092 1.92452 -3.87536
LeftUpLeg  -23.8996 4.44896 -4.87617
LeftLeg  39.1949 1.30447 1.50639
LeftFoot  -4.69598 0.320964 -5.04467
LeftToes  -1.95724e-009 9.62483e-011 3.51777e-011
28
root  9.35339 38.9175 3.24886 -77.9604 -81.5696 82.0426
RightUpLeg  -9.53264 -14.5112 -11.7699
RightLeg  24.9291 10.9282 4.98362
RightFoot  -18.6917 -0.170134 -0.679232
RightToes  4.01633e-009 0 -3.6325e-017
Spine  -7.50518 0.867074 0.53986
Spine1  13.1269 1.10389 1.55708
HEad  2.90555 3.51722 -7.22762
LeftShoulder1  -0.503301 4.79258 -32.9074
LeftArm  -10.9021 17.5052 -48.618
LeftForeArm  27.6583 -2.72423 -4.96342
LeftHand  -0.0511482 5.67648 -5.63758
RightShoulder  -1.08833 -6.57248 28.9375
RightArm  6.34986 -11.2635 48.2791
RightForeArm  15.8689 8.67661 4.42353
RightHand  -0.233568 1.18039 -4.26232
LeftUpLeg  -24.9253 4.27895 -5.81461
LeftLeg  36.8582 0.80262 0.992508
LeftFoot  -4.80726 0.353806 -5.68957
LeftToes  -1.95724e-009 9.62483e-011 3.51777e-011
29
root  8.92726 38.9622 3.3753 -73.6504 -80.5512 77.9152
RightUpLeg  -8.45373 -15.9921 -13.3039
RightLeg  24.4472 11.6385 5.35419
RightFoot  -18.9973 -0.166586 -0.569726
RightToes  4.01633e-009 0 -3.6325e-017
Spine  -7.28271 0.653921 0.141144
Spine1  12.7324 0.944519 0.961879
HEad  2.80272 4.01042 -7.47261
LeftShoulder1  -0.487399 4.75842 -32.7025
LeftArm  -11.1933 17.1503 -47.4407
LeftForeArm  28.9081 -2.33932 -4.68939
LeftHand  -0.130265 7.08026 -5.77747
RightShoulder  -0.996333 -6.34934 28.46
RightArm  10.1562 -9.88303 48.4327
RightForeArm  17.4715 9.99146 5.60997
RightHand  -0.21129 0.229078 -4.401
LeftUpLeg  -25.681 3.69347 -6.42069
LeftLeg  32.5995 1.16867 1.13593
LeftFoot  -4.65643 0.361005 -5.7
LeftToes  -1.95724e-009 9.62483e-011 3.51777e-011
30
root  8.46796 38.9881 3.54413 -70.125 -79.5374 74.5084
RightUpLeg  -7.16243 -17.1654 -14.8636
RightLeg  23.8413 12.1153 5.55463
RightFoot  -19.3612 -0.155149 -0.343793
RightToes  4.01633e-009 0 -3.6325e-017
Spine  -7.19908 0.392584 -0.719139
Spine1  12.6689 0.607315 0.960174
HEad  2.47894 3.9454 -7.90409
LeftShoulder1  -0.44943 4.66779 -32.4732
LeftArm  -10.8545 17.191 -46.0066
LeftForeArm  29.9554 -3.36894 -4.91007
LeftHand  -0.0982601 6.6869 -4.89238
RightShoulder  -0.901871 -6.12288 27.8605
RightArm  13.7916 -7.97044 48.1165
RightForeArm  17.8132 11.353 6.29705
RightHand  -0.181978 0.0198521 -3.93693
LeftUpLeg  -25.8604 2.1551 -6.62138
LeftLeg  27.1233 1.79768 1.32034
LeftFoot  -4.46501 0.367091 -5.66474
LeftToes  -1.95724e-009 9.62483e-011 3.51777e-011
